<?xml version="1.0" encoding="UTF-8" standalone="no"?>
<!DOCTYPE svg PUBLIC "-//W3C//DTD SVG 1.1//EN"
 "http://www.w3.org/Graphics/SVG/1.1/DTD/svg11.dtd">
<!-- Generated by graphviz version 2.43.0 (0)
 -->
<!-- Title: %3 Pages: 1 -->
<svg width="176pt" height="116pt"
 viewBox="0.00 0.00 175.74 116.00" xmlns="http://www.w3.org/2000/svg" xmlns:xlink="http://www.w3.org/1999/xlink">
<g id="graph0" class="graph" transform="scale(1 1) rotate(0) translate(4 112)">
<title>%3</title>
<polygon fill="white" stroke="transparent" points="-4,4 -4,-112 171.74,-112 171.74,4 -4,4"/>
<!-- m -->
<g id="node1" class="node">
<title>m</title>
<ellipse fill="pink" stroke="red" cx="30.55" cy="-18" rx="30.59" ry="18"/>
<text text-anchor="middle" x="30.55" y="-14.3" font-family="Times,serif" font-size="14.00">man</text>
</g>
<!-- l -->
<g id="node2" class="node">
<title>l</title>
<ellipse fill="pink" stroke="red" cx="76.55" cy="-90" rx="44.39" ry="18"/>
<text text-anchor="middle" x="76.55" y="-86.3" font-family="Times,serif" font-size="14.00">love&#45;01</text>
</g>
<!-- l&#45;&gt;m -->
<g id="edge1" class="edge">
<title>l&#45;&gt;m</title>
<path fill="none" stroke="red" stroke-width="2" d="M65.65,-72.41C59.95,-63.74 52.87,-52.97 46.57,-43.38"/>
<polygon fill="red" stroke="red" stroke-width="2" points="49.47,-41.42 41.05,-34.99 43.62,-45.27 49.47,-41.42"/>
</g>
<!-- w -->
<g id="node3" class="node">
<title>w</title>
<ellipse fill="pink" stroke="red" cx="123.55" cy="-18" rx="44.39" ry="18"/>
<text text-anchor="middle" x="123.55" y="-14.3" font-family="Times,serif" font-size="14.00">woman</text>
</g>
<!-- l&#45;&gt;w -->
<g id="edge2" class="edge">
<title>l&#45;&gt;w</title>
<path fill="none" stroke="red" stroke-width="2" d="M87.69,-72.41C93.42,-63.87 100.53,-53.28 106.9,-43.79"/>
<polygon fill="red" stroke="red" stroke-width="2" points="109.82,-45.72 112.49,-35.47 104.01,-41.82 109.82,-45.72"/>
</g>
</g>
</svg>
